# Tiled2Unity generated file. Do not modify by hand.
# Wavefront file for 'map_test_mesh_0003.obj'

# Vertices (Count = 88)
v -448 -656 0
v -464 -656 0
v -464 -640 0
v -448 -640 0
v -448 -640 0
v -464 -640 0
v -464 -624 0
v -448 -624 0
v -528 -640 0
v -544 -640 0
v -544 -624 0
v -528 -624 0
v -592 -624 0
v -608 -624 0
v -608 -608 0
v -592 -608 0
v -592 -608 0
v -608 -608 0
v -608 -592 0
v -592 -592 0
v -640 -608 0
v -656 -608 0
v -656 -592 0
v -640 -592 0
v -416 -592 0
v -432 -592 0
v -432 -576 0
v -416 -576 0
v -640 -592 0
v -656 -592 0
v -656 -576 0
v -640 -576 0
v -544 -560 0
v -560 -560 0
v -560 -544 0
v -544 -544 0
v -544 -544 0
v -560 -544 0
v -560 -528 0
v -544 -528 0
v -608 -528 0
v -624 -528 0
v -624 -512 0
v -608 -512 0
v -608 -512 0
v -624 -512 0
v -624 -496 0
v -608 -496 0
v -608 -448 0
v -624 -448 0
v -624 -432 0
v -608 -432 0
v -576 -432 0
v -592 -432 0
v -592 -416 0
v -576 -416 0
v -576 -416 0
v -592 -416 0
v -592 -400 0
v -576 -400 0
v -432 -400 0
v -448 -400 0
v -448 -384 0
v -432 -384 0
v -496 -400 0
v -512 -400 0
v -512 -384 0
v -496 -384 0
v -432 -384 0
v -448 -384 0
v -448 -368 0
v -432 -368 0
v -496 -368 0
v -512 -368 0
v -512 -352 0
v -496 -352 0
v -640 -368 0
v -656 -368 0
v -656 -352 0
v -640 -352 0
v -496 -352 0
v -512 -352 0
v -512 -336 0
v -496 -336 0
v -640 -352 0
v -656 -352 0
v -656 -336 0
v -640 -336 0

# Texture cooridinates (Count = 12)
vt 0.2283058 0.6140684
vt 0.2448347 0.6140684
vt 0.2448347 0.6444867
vt 0.2283058 0.6444867
vt 0.2283058 0.6463878
vt 0.2448347 0.6463878
vt 0.2448347 0.6768061
vt 0.2283058 0.6768061
vt 0.2283058 0.6787072
vt 0.2448347 0.6787072
vt 0.2448347 0.7091255
vt 0.2283058 0.7091255

# Normal
vn 0 0 -1

# Mesh description
g map_test_mesh_0003

# Faces
f 1/1/1 2/2/1 3/3/1 4/4/1
f 5/5/1 6/6/1 7/7/1 8/8/1
f 9/9/1 10/10/1 11/11/1 12/12/1
f 13/1/1 14/2/1 15/3/1 16/4/1
f 17/5/1 18/6/1 19/7/1 20/8/1
f 21/1/1 22/2/1 23/3/1 24/4/1
f 25/9/1 26/10/1 27/11/1 28/12/1
f 29/5/1 30/6/1 31/7/1 32/8/1
f 33/1/1 34/2/1 35/3/1 36/4/1
f 37/5/1 38/6/1 39/7/1 40/8/1
f 41/1/1 42/2/1 43/3/1 44/4/1
f 45/5/1 46/6/1 47/7/1 48/8/1
f 49/9/1 50/10/1 51/11/1 52/12/1
f 53/1/1 54/2/1 55/3/1 56/4/1
f 57/5/1 58/6/1 59/7/1 60/8/1
f 61/1/1 62/2/1 63/3/1 64/4/1
f 65/9/1 66/10/1 67/11/1 68/12/1
f 69/5/1 70/6/1 71/7/1 72/8/1
f 73/1/1 74/2/1 75/3/1 76/4/1
f 77/1/1 78/2/1 79/3/1 80/4/1
f 81/5/1 82/6/1 83/7/1 84/8/1
f 85/5/1 86/6/1 87/7/1 88/8/1

