# Tiled2Unity generated file. Do not modify by hand.
# Wavefront file for 'map_test2_mesh_0002.obj'

# Vertices (Count = 648)
v -416 -624 0
v -432 -624 0
v -432 -608 0
v -416 -608 0
v -432 -624 0
v -448 -624 0
v -448 -608 0
v -432 -608 0
v -448 -624 0
v -464 -624 0
v -464 -608 0
v -448 -608 0
v -464 -624 0
v -480 -624 0
v -480 -608 0
v -464 -608 0
v -480 -624 0
v -496 -624 0
v -496 -608 0
v -480 -608 0
v -496 -624 0
v -512 -624 0
v -512 -608 0
v -496 -608 0
v -416 -608 0
v -432 -608 0
v -432 -592 0
v -416 -592 0
v -432 -608 0
v -448 -608 0
v -448 -592 0
v -432 -592 0
v -448 -608 0
v -464 -608 0
v -464 -592 0
v -448 -592 0
v -464 -608 0
v -480 -608 0
v -480 -592 0
v -464 -592 0
v -480 -608 0
v -496 -608 0
v -496 -592 0
v -480 -592 0
v -496 -608 0
v -512 -608 0
v -512 -592 0
v -496 -592 0
v -416 -592 0
v -432 -592 0
v -432 -576 0
v -416 -576 0
v -432 -592 0
v -448 -592 0
v -448 -576 0
v -432 -576 0
v -448 -592 0
v -464 -592 0
v -464 -576 0
v -448 -576 0
v -464 -592 0
v -480 -592 0
v -480 -576 0
v -464 -576 0
v -480 -592 0
v -496 -592 0
v -496 -576 0
v -480 -576 0
v -496 -592 0
v -512 -592 0
v -512 -576 0
v -496 -576 0
v -416 -576 0
v -432 -576 0
v -432 -560 0
v -416 -560 0
v -432 -576 0
v -448 -576 0
v -448 -560 0
v -432 -560 0
v -448 -576 0
v -464 -576 0
v -464 -560 0
v -448 -560 0
v -464 -576 0
v -480 -576 0
v -480 -560 0
v -464 -560 0
v -480 -576 0
v -496 -576 0
v -496 -560 0
v -480 -560 0
v -496 -576 0
v -512 -576 0
v -512 -560 0
v -496 -560 0
v -416 -560 0
v -432 -560 0
v -432 -544 0
v -416 -544 0
v -432 -560 0
v -448 -560 0
v -448 -544 0
v -432 -544 0
v -448 -560 0
v -464 -560 0
v -464 -544 0
v -448 -544 0
v -464 -560 0
v -480 -560 0
v -480 -544 0
v -464 -544 0
v -480 -560 0
v -496 -560 0
v -496 -544 0
v -480 -544 0
v -496 -560 0
v -512 -560 0
v -512 -544 0
v -496 -544 0
v -416 -544 0
v -432 -544 0
v -432 -528 0
v -416 -528 0
v -432 -544 0
v -448 -544 0
v -448 -528 0
v -432 -528 0
v -448 -544 0
v -464 -544 0
v -464 -528 0
v -448 -528 0
v -464 -544 0
v -480 -544 0
v -480 -528 0
v -464 -528 0
v -480 -544 0
v -496 -544 0
v -496 -528 0
v -480 -528 0
v -496 -544 0
v -512 -544 0
v -512 -528 0
v -496 -528 0
v -416 -528 0
v -432 -528 0
v -432 -512 0
v -416 -512 0
v -432 -528 0
v -448 -528 0
v -448 -512 0
v -432 -512 0
v -448 -528 0
v -464 -528 0
v -464 -512 0
v -448 -512 0
v -464 -528 0
v -480 -528 0
v -480 -512 0
v -464 -512 0
v -480 -528 0
v -496 -528 0
v -496 -512 0
v -480 -512 0
v -496 -528 0
v -512 -528 0
v -512 -512 0
v -496 -512 0
v -416 -512 0
v -432 -512 0
v -432 -496 0
v -416 -496 0
v -432 -512 0
v -448 -512 0
v -448 -496 0
v -432 -496 0
v -448 -512 0
v -464 -512 0
v -464 -496 0
v -448 -496 0
v -464 -512 0
v -480 -512 0
v -480 -496 0
v -464 -496 0
v -480 -512 0
v -496 -512 0
v -496 -496 0
v -480 -496 0
v -496 -512 0
v -512 -512 0
v -512 -496 0
v -496 -496 0
v -416 -496 0
v -432 -496 0
v -432 -480 0
v -416 -480 0
v -432 -496 0
v -448 -496 0
v -448 -480 0
v -432 -480 0
v -448 -496 0
v -464 -496 0
v -464 -480 0
v -448 -480 0
v -464 -496 0
v -480 -496 0
v -480 -480 0
v -464 -480 0
v -480 -496 0
v -496 -496 0
v -496 -480 0
v -480 -480 0
v -496 -496 0
v -512 -496 0
v -512 -480 0
v -496 -480 0
v -416 -432 0
v -432 -432 0
v -432 -416 0
v -416 -416 0
v -432 -432 0
v -448 -432 0
v -448 -416 0
v -432 -416 0
v -448 -432 0
v -464 -432 0
v -464 -416 0
v -448 -416 0
v -464 -432 0
v -480 -432 0
v -480 -416 0
v -464 -416 0
v -480 -432 0
v -496 -432 0
v -496 -416 0
v -480 -416 0
v -496 -432 0
v -512 -432 0
v -512 -416 0
v -496 -416 0
v -560 -432 0
v -576 -432 0
v -576 -416 0
v -560 -416 0
v -576 -432 0
v -592 -432 0
v -592 -416 0
v -576 -416 0
v -592 -432 0
v -608 -432 0
v -608 -416 0
v -592 -416 0
v -608 -432 0
v -624 -432 0
v -624 -416 0
v -608 -416 0
v -624 -432 0
v -640 -432 0
v -640 -416 0
v -624 -416 0
v -640 -432 0
v -656 -432 0
v -656 -416 0
v -640 -416 0
v -416 -416 0
v -432 -416 0
v -432 -400 0
v -416 -400 0
v -432 -416 0
v -448 -416 0
v -448 -400 0
v -432 -400 0
v -448 -416 0
v -464 -416 0
v -464 -400 0
v -448 -400 0
v -464 -416 0
v -480 -416 0
v -480 -400 0
v -464 -400 0
v -480 -416 0
v -496 -416 0
v -496 -400 0
v -480 -400 0
v -496 -416 0
v -512 -416 0
v -512 -400 0
v -496 -400 0
v -560 -416 0
v -576 -416 0
v -576 -400 0
v -560 -400 0
v -576 -416 0
v -592 -416 0
v -592 -400 0
v -576 -400 0
v -592 -416 0
v -608 -416 0
v -608 -400 0
v -592 -400 0
v -608 -416 0
v -624 -416 0
v -624 -400 0
v -608 -400 0
v -624 -416 0
v -640 -416 0
v -640 -400 0
v -624 -400 0
v -640 -416 0
v -656 -416 0
v -656 -400 0
v -640 -400 0
v -416 -400 0
v -432 -400 0
v -432 -384 0
v -416 -384 0
v -432 -400 0
v -448 -400 0
v -448 -384 0
v -432 -384 0
v -448 -400 0
v -464 -400 0
v -464 -384 0
v -448 -384 0
v -464 -400 0
v -480 -400 0
v -480 -384 0
v -464 -384 0
v -480 -400 0
v -496 -400 0
v -496 -384 0
v -480 -384 0
v -496 -400 0
v -512 -400 0
v -512 -384 0
v -496 -384 0
v -560 -400 0
v -576 -400 0
v -576 -384 0
v -560 -384 0
v -576 -400 0
v -592 -400 0
v -592 -384 0
v -576 -384 0
v -592 -400 0
v -608 -400 0
v -608 -384 0
v -592 -384 0
v -608 -400 0
v -624 -400 0
v -624 -384 0
v -608 -384 0
v -624 -400 0
v -640 -400 0
v -640 -384 0
v -624 -384 0
v -640 -400 0
v -656 -400 0
v -656 -384 0
v -640 -384 0
v -416 -384 0
v -432 -384 0
v -432 -368 0
v -416 -368 0
v -432 -384 0
v -448 -384 0
v -448 -368 0
v -432 -368 0
v -448 -384 0
v -464 -384 0
v -464 -368 0
v -448 -368 0
v -464 -384 0
v -480 -384 0
v -480 -368 0
v -464 -368 0
v -480 -384 0
v -496 -384 0
v -496 -368 0
v -480 -368 0
v -496 -384 0
v -512 -384 0
v -512 -368 0
v -496 -368 0
v -560 -384 0
v -576 -384 0
v -576 -368 0
v -560 -368 0
v -576 -384 0
v -592 -384 0
v -592 -368 0
v -576 -368 0
v -592 -384 0
v -608 -384 0
v -608 -368 0
v -592 -368 0
v -608 -384 0
v -624 -384 0
v -624 -368 0
v -608 -368 0
v -624 -384 0
v -640 -384 0
v -640 -368 0
v -624 -368 0
v -640 -384 0
v -656 -384 0
v -656 -368 0
v -640 -368 0
v -416 -368 0
v -432 -368 0
v -432 -352 0
v -416 -352 0
v -432 -368 0
v -448 -368 0
v -448 -352 0
v -432 -352 0
v -448 -368 0
v -464 -368 0
v -464 -352 0
v -448 -352 0
v -464 -368 0
v -480 -368 0
v -480 -352 0
v -464 -352 0
v -480 -368 0
v -496 -368 0
v -496 -352 0
v -480 -352 0
v -496 -368 0
v -512 -368 0
v -512 -352 0
v -496 -352 0
v -560 -368 0
v -576 -368 0
v -576 -352 0
v -560 -352 0
v -576 -368 0
v -592 -368 0
v -592 -352 0
v -576 -352 0
v -592 -368 0
v -608 -368 0
v -608 -352 0
v -592 -352 0
v -608 -368 0
v -624 -368 0
v -624 -352 0
v -608 -352 0
v -624 -368 0
v -640 -368 0
v -640 -352 0
v -624 -352 0
v -640 -368 0
v -656 -368 0
v -656 -352 0
v -640 -352 0
v -416 -352 0
v -432 -352 0
v -432 -336 0
v -416 -336 0
v -432 -352 0
v -448 -352 0
v -448 -336 0
v -432 -336 0
v -448 -352 0
v -464 -352 0
v -464 -336 0
v -448 -336 0
v -464 -352 0
v -480 -352 0
v -480 -336 0
v -464 -336 0
v -480 -352 0
v -496 -352 0
v -496 -336 0
v -480 -336 0
v -496 -352 0
v -512 -352 0
v -512 -336 0
v -496 -336 0
v -560 -352 0
v -576 -352 0
v -576 -336 0
v -560 -336 0
v -576 -352 0
v -592 -352 0
v -592 -336 0
v -576 -336 0
v -592 -352 0
v -608 -352 0
v -608 -336 0
v -592 -336 0
v -608 -352 0
v -624 -352 0
v -624 -336 0
v -608 -336 0
v -624 -352 0
v -640 -352 0
v -640 -336 0
v -624 -336 0
v -640 -352 0
v -656 -352 0
v -656 -336 0
v -640 -336 0
v -416 -336 0
v -432 -336 0
v -432 -320 0
v -416 -320 0
v -432 -336 0
v -448 -336 0
v -448 -320 0
v -432 -320 0
v -448 -336 0
v -464 -336 0
v -464 -320 0
v -448 -320 0
v -464 -336 0
v -480 -336 0
v -480 -320 0
v -464 -320 0
v -480 -336 0
v -496 -336 0
v -496 -320 0
v -480 -320 0
v -496 -336 0
v -512 -336 0
v -512 -320 0
v -496 -320 0
v -560 -336 0
v -576 -336 0
v -576 -320 0
v -560 -320 0
v -576 -336 0
v -592 -336 0
v -592 -320 0
v -576 -320 0
v -592 -336 0
v -608 -336 0
v -608 -320 0
v -592 -320 0
v -608 -336 0
v -624 -336 0
v -624 -320 0
v -608 -320 0
v -624 -336 0
v -640 -336 0
v -640 -320 0
v -624 -320 0
v -640 -336 0
v -656 -336 0
v -656 -320 0
v -640 -320 0
v -416 -320 0
v -432 -320 0
v -432 -304 0
v -416 -304 0
v -432 -320 0
v -448 -320 0
v -448 -304 0
v -432 -304 0
v -448 -320 0
v -464 -320 0
v -464 -304 0
v -448 -304 0
v -464 -320 0
v -480 -320 0
v -480 -304 0
v -464 -304 0
v -480 -320 0
v -496 -320 0
v -496 -304 0
v -480 -304 0
v -496 -320 0
v -512 -320 0
v -512 -304 0
v -496 -304 0
v -560 -320 0
v -576 -320 0
v -576 -304 0
v -560 -304 0
v -576 -320 0
v -592 -320 0
v -592 -304 0
v -576 -304 0
v -592 -320 0
v -608 -320 0
v -608 -304 0
v -592 -304 0
v -608 -320 0
v -624 -320 0
v -624 -304 0
v -608 -304 0
v -624 -320 0
v -640 -320 0
v -640 -304 0
v -624 -304 0
v -640 -320 0
v -656 -320 0
v -656 -304 0
v -640 -304 0
v -416 -304 0
v -432 -304 0
v -432 -288 0
v -416 -288 0
v -432 -304 0
v -448 -304 0
v -448 -288 0
v -432 -288 0
v -448 -304 0
v -464 -304 0
v -464 -288 0
v -448 -288 0
v -464 -304 0
v -480 -304 0
v -480 -288 0
v -464 -288 0
v -480 -304 0
v -496 -304 0
v -496 -288 0
v -480 -288 0
v -496 -304 0
v -512 -304 0
v -512 -288 0
v -496 -288 0
v -560 -304 0
v -576 -304 0
v -576 -288 0
v -560 -288 0
v -576 -304 0
v -592 -304 0
v -592 -288 0
v -576 -288 0
v -592 -304 0
v -608 -304 0
v -608 -288 0
v -592 -288 0
v -608 -304 0
v -624 -304 0
v -624 -288 0
v -608 -288 0
v -624 -304 0
v -640 -304 0
v -640 -288 0
v -624 -288 0
v -640 -304 0
v -656 -304 0
v -656 -288 0
v -640 -288 0

# Texture cooridinates (Count = 108)
vt 0.03512397 0.6140684
vt 0.05165289 0.6140684
vt 0.05165289 0.6444867
vt 0.03512397 0.6444867
vt 0.05268595 0.6140684
vt 0.06921487 0.6140684
vt 0.06921487 0.6444867
vt 0.05268595 0.6444867
vt 0.07024793 0.6140684
vt 0.08677686 0.6140684
vt 0.08677686 0.6444867
vt 0.07024793 0.6444867
vt 0.03512397 0.6463878
vt 0.05165289 0.6463878
vt 0.05165289 0.6768061
vt 0.03512397 0.6768061
vt 0.05268595 0.6463878
vt 0.06921487 0.6463878
vt 0.06921487 0.6768061
vt 0.05268595 0.6768061
vt 0.07024793 0.6463878
vt 0.08677686 0.6463878
vt 0.08677686 0.6768061
vt 0.07024793 0.6768061
vt 0.03512397 0.6787072
vt 0.05165289 0.6787072
vt 0.05165289 0.7091255
vt 0.03512397 0.7091255
vt 0.05268595 0.6787072
vt 0.06921487 0.6787072
vt 0.06921487 0.7091255
vt 0.05268595 0.7091255
vt 0.07024793 0.6787072
vt 0.08677686 0.6787072
vt 0.08677686 0.7091255
vt 0.07024793 0.7091255
vt 0.03512397 0.7110266
vt 0.05165289 0.7110266
vt 0.05165289 0.7414448
vt 0.03512397 0.7414448
vt 0.05268595 0.7110266
vt 0.06921487 0.7110266
vt 0.06921487 0.7414448
vt 0.05268595 0.7414448
vt 0.07024793 0.7110266
vt 0.08677686 0.7110266
vt 0.08677686 0.7414448
vt 0.07024793 0.7414448
vt 0.03512397 0.5171102
vt 0.05165289 0.5171102
vt 0.05165289 0.5475285
vt 0.03512397 0.5475285
vt 0.05268595 0.5171102
vt 0.06921487 0.5171102
vt 0.06921487 0.5475285
vt 0.05268595 0.5475285
vt 0.07024793 0.5171102
vt 0.08677686 0.5171102
vt 0.08677686 0.5475285
vt 0.07024793 0.5475285
vt 0.03512397 0.743346
vt 0.05165289 0.743346
vt 0.05165289 0.7737643
vt 0.03512397 0.7737643
vt 0.05268595 0.743346
vt 0.06921487 0.743346
vt 0.06921487 0.7737643
vt 0.05268595 0.7737643
vt 0.07024793 0.743346
vt 0.08677686 0.743346
vt 0.08677686 0.7737643
vt 0.07024793 0.7737643
vt 0.03512397 0.5494297
vt 0.05165289 0.5494297
vt 0.05165289 0.5798479
vt 0.03512397 0.5798479
vt 0.05268595 0.5494297
vt 0.06921487 0.5494297
vt 0.06921487 0.5798479
vt 0.05268595 0.5798479
vt 0.07024793 0.5494297
vt 0.08677686 0.5494297
vt 0.08677686 0.5798479
vt 0.07024793 0.5798479
vt 0.03512397 0.7756654
vt 0.05165289 0.7756654
vt 0.05165289 0.8060837
vt 0.03512397 0.8060837
vt 0.05268595 0.7756654
vt 0.06921487 0.7756654
vt 0.06921487 0.8060837
vt 0.05268595 0.8060837
vt 0.07024793 0.7756654
vt 0.08677686 0.7756654
vt 0.08677686 0.8060837
vt 0.07024793 0.8060837
vt 0.03512397 0.5817491
vt 0.05165289 0.5817491
vt 0.05165289 0.6121673
vt 0.03512397 0.6121673
vt 0.05268595 0.5817491
vt 0.06921487 0.5817491
vt 0.06921487 0.6121673
vt 0.05268595 0.6121673
vt 0.07024793 0.5817491
vt 0.08677686 0.5817491
vt 0.08677686 0.6121673
vt 0.07024793 0.6121673

# Normal
vn 0 0 -1

# Mesh description
g map_test2_mesh_0002

# Faces
f 1/1/1 2/2/1 3/3/1 4/4/1
f 5/5/1 6/6/1 7/7/1 8/8/1
f 9/9/1 10/10/1 11/11/1 12/12/1
f 13/1/1 14/2/1 15/3/1 16/4/1
f 17/5/1 18/6/1 19/7/1 20/8/1
f 21/9/1 22/10/1 23/11/1 24/12/1
f 25/13/1 26/14/1 27/15/1 28/16/1
f 29/17/1 30/18/1 31/19/1 32/20/1
f 33/21/1 34/22/1 35/23/1 36/24/1
f 37/13/1 38/14/1 39/15/1 40/16/1
f 41/17/1 42/18/1 43/19/1 44/20/1
f 45/21/1 46/22/1 47/23/1 48/24/1
f 49/25/1 50/26/1 51/27/1 52/28/1
f 53/29/1 54/30/1 55/31/1 56/32/1
f 57/33/1 58/34/1 59/35/1 60/36/1
f 61/25/1 62/26/1 63/27/1 64/28/1
f 65/29/1 66/30/1 67/31/1 68/32/1
f 69/33/1 70/34/1 71/35/1 72/36/1
f 73/1/1 74/2/1 75/3/1 76/4/1
f 77/5/1 78/6/1 79/7/1 80/8/1
f 81/9/1 82/10/1 83/11/1 84/12/1
f 85/1/1 86/2/1 87/3/1 88/4/1
f 89/5/1 90/6/1 91/7/1 92/8/1
f 93/9/1 94/10/1 95/11/1 96/12/1
f 97/13/1 98/14/1 99/15/1 100/16/1
f 101/17/1 102/18/1 103/19/1 104/20/1
f 105/21/1 106/22/1 107/23/1 108/24/1
f 109/13/1 110/14/1 111/15/1 112/16/1
f 113/17/1 114/18/1 115/19/1 116/20/1
f 117/21/1 118/22/1 119/23/1 120/24/1
f 121/25/1 122/26/1 123/27/1 124/28/1
f 125/29/1 126/30/1 127/31/1 128/32/1
f 129/33/1 130/34/1 131/35/1 132/36/1
f 133/25/1 134/26/1 135/27/1 136/28/1
f 137/29/1 138/30/1 139/31/1 140/32/1
f 141/33/1 142/34/1 143/35/1 144/36/1
f 145/1/1 146/2/1 147/3/1 148/4/1
f 149/5/1 150/6/1 151/7/1 152/8/1
f 153/9/1 154/10/1 155/11/1 156/12/1
f 157/1/1 158/2/1 159/3/1 160/4/1
f 161/5/1 162/6/1 163/7/1 164/8/1
f 165/9/1 166/10/1 167/11/1 168/12/1
f 169/13/1 170/14/1 171/15/1 172/16/1
f 173/17/1 174/18/1 175/19/1 176/20/1
f 177/21/1 178/22/1 179/23/1 180/24/1
f 181/13/1 182/14/1 183/15/1 184/16/1
f 185/17/1 186/18/1 187/19/1 188/20/1
f 189/21/1 190/22/1 191/23/1 192/24/1
f 193/25/1 194/26/1 195/27/1 196/28/1
f 197/29/1 198/30/1 199/31/1 200/32/1
f 201/33/1 202/34/1 203/35/1 204/36/1
f 205/25/1 206/26/1 207/27/1 208/28/1
f 209/29/1 210/30/1 211/31/1 212/32/1
f 213/33/1 214/34/1 215/35/1 216/36/1
f 217/37/1 218/38/1 219/39/1 220/40/1
f 221/41/1 222/42/1 223/43/1 224/44/1
f 225/45/1 226/46/1 227/47/1 228/48/1
f 229/37/1 230/38/1 231/39/1 232/40/1
f 233/41/1 234/42/1 235/43/1 236/44/1
f 237/45/1 238/46/1 239/47/1 240/48/1
f 241/49/1 242/50/1 243/51/1 244/52/1
f 245/53/1 246/54/1 247/55/1 248/56/1
f 249/57/1 250/58/1 251/59/1 252/60/1
f 253/49/1 254/50/1 255/51/1 256/52/1
f 257/53/1 258/54/1 259/55/1 260/56/1
f 261/57/1 262/58/1 263/59/1 264/60/1
f 265/61/1 266/62/1 267/63/1 268/64/1
f 269/65/1 270/66/1 271/67/1 272/68/1
f 273/69/1 274/70/1 275/71/1 276/72/1
f 277/61/1 278/62/1 279/63/1 280/64/1
f 281/65/1 282/66/1 283/67/1 284/68/1
f 285/69/1 286/70/1 287/71/1 288/72/1
f 289/73/1 290/74/1 291/75/1 292/76/1
f 293/77/1 294/78/1 295/79/1 296/80/1
f 297/81/1 298/82/1 299/83/1 300/84/1
f 301/73/1 302/74/1 303/75/1 304/76/1
f 305/77/1 306/78/1 307/79/1 308/80/1
f 309/81/1 310/82/1 311/83/1 312/84/1
f 313/85/1 314/86/1 315/87/1 316/88/1
f 317/89/1 318/90/1 319/91/1 320/92/1
f 321/93/1 322/94/1 323/95/1 324/96/1
f 325/85/1 326/86/1 327/87/1 328/88/1
f 329/89/1 330/90/1 331/91/1 332/92/1
f 333/93/1 334/94/1 335/95/1 336/96/1
f 337/97/1 338/98/1 339/99/1 340/100/1
f 341/101/1 342/102/1 343/103/1 344/104/1
f 345/105/1 346/106/1 347/107/1 348/108/1
f 349/97/1 350/98/1 351/99/1 352/100/1
f 353/101/1 354/102/1 355/103/1 356/104/1
f 357/105/1 358/106/1 359/107/1 360/108/1
f 361/37/1 362/38/1 363/39/1 364/40/1
f 365/41/1 366/42/1 367/43/1 368/44/1
f 369/45/1 370/46/1 371/47/1 372/48/1
f 373/37/1 374/38/1 375/39/1 376/40/1
f 377/41/1 378/42/1 379/43/1 380/44/1
f 381/45/1 382/46/1 383/47/1 384/48/1
f 385/49/1 386/50/1 387/51/1 388/52/1
f 389/53/1 390/54/1 391/55/1 392/56/1
f 393/57/1 394/58/1 395/59/1 396/60/1
f 397/49/1 398/50/1 399/51/1 400/52/1
f 401/53/1 402/54/1 403/55/1 404/56/1
f 405/57/1 406/58/1 407/59/1 408/60/1
f 409/61/1 410/62/1 411/63/1 412/64/1
f 413/65/1 414/66/1 415/67/1 416/68/1
f 417/69/1 418/70/1 419/71/1 420/72/1
f 421/61/1 422/62/1 423/63/1 424/64/1
f 425/65/1 426/66/1 427/67/1 428/68/1
f 429/69/1 430/70/1 431/71/1 432/72/1
f 433/73/1 434/74/1 435/75/1 436/76/1
f 437/77/1 438/78/1 439/79/1 440/80/1
f 441/81/1 442/82/1 443/83/1 444/84/1
f 445/73/1 446/74/1 447/75/1 448/76/1
f 449/77/1 450/78/1 451/79/1 452/80/1
f 453/81/1 454/82/1 455/83/1 456/84/1
f 457/85/1 458/86/1 459/87/1 460/88/1
f 461/89/1 462/90/1 463/91/1 464/92/1
f 465/93/1 466/94/1 467/95/1 468/96/1
f 469/85/1 470/86/1 471/87/1 472/88/1
f 473/89/1 474/90/1 475/91/1 476/92/1
f 477/93/1 478/94/1 479/95/1 480/96/1
f 481/97/1 482/98/1 483/99/1 484/100/1
f 485/101/1 486/102/1 487/103/1 488/104/1
f 489/105/1 490/106/1 491/107/1 492/108/1
f 493/97/1 494/98/1 495/99/1 496/100/1
f 497/101/1 498/102/1 499/103/1 500/104/1
f 501/105/1 502/106/1 503/107/1 504/108/1
f 505/37/1 506/38/1 507/39/1 508/40/1
f 509/41/1 510/42/1 511/43/1 512/44/1
f 513/45/1 514/46/1 515/47/1 516/48/1
f 517/37/1 518/38/1 519/39/1 520/40/1
f 521/41/1 522/42/1 523/43/1 524/44/1
f 525/45/1 526/46/1 527/47/1 528/48/1
f 529/49/1 530/50/1 531/51/1 532/52/1
f 533/53/1 534/54/1 535/55/1 536/56/1
f 537/57/1 538/58/1 539/59/1 540/60/1
f 541/49/1 542/50/1 543/51/1 544/52/1
f 545/53/1 546/54/1 547/55/1 548/56/1
f 549/57/1 550/58/1 551/59/1 552/60/1
f 553/61/1 554/62/1 555/63/1 556/64/1
f 557/65/1 558/66/1 559/67/1 560/68/1
f 561/69/1 562/70/1 563/71/1 564/72/1
f 565/61/1 566/62/1 567/63/1 568/64/1
f 569/65/1 570/66/1 571/67/1 572/68/1
f 573/69/1 574/70/1 575/71/1 576/72/1
f 577/73/1 578/74/1 579/75/1 580/76/1
f 581/77/1 582/78/1 583/79/1 584/80/1
f 585/81/1 586/82/1 587/83/1 588/84/1
f 589/73/1 590/74/1 591/75/1 592/76/1
f 593/77/1 594/78/1 595/79/1 596/80/1
f 597/81/1 598/82/1 599/83/1 600/84/1
f 601/85/1 602/86/1 603/87/1 604/88/1
f 605/89/1 606/90/1 607/91/1 608/92/1
f 609/93/1 610/94/1 611/95/1 612/96/1
f 613/85/1 614/86/1 615/87/1 616/88/1
f 617/89/1 618/90/1 619/91/1 620/92/1
f 621/93/1 622/94/1 623/95/1 624/96/1
f 625/97/1 626/98/1 627/99/1 628/100/1
f 629/101/1 630/102/1 631/103/1 632/104/1
f 633/105/1 634/106/1 635/107/1 636/108/1
f 637/97/1 638/98/1 639/99/1 640/100/1
f 641/101/1 642/102/1 643/103/1 644/104/1
f 645/105/1 646/106/1 647/107/1 648/108/1

